<svg id="Capa_1" enable-background="new 0 0 511.875 511.875" height="512" viewBox="0 0 511.875 511.875" width="512" xmlns="http://www.w3.org/2000/svg"><g><path d="m7.698 138.611c-7.236-4.034-9.831-13.17-5.797-20.406l1.46-2.62c26.29-47.129 65.094-85.934 112.22-112.221l2.625-1.463c7.238-4.033 16.372-1.436 20.405 5.8 4.033 7.237 1.436 16.372-5.8 20.405l-2.621 1.46c-42.255 23.571-77.054 58.37-100.627 100.631l-1.458 2.617c-4.047 7.258-13.19 9.819-20.407 5.797z"/><path d="m373.267 504.178c-4.035-7.235-1.44-16.372 5.796-20.406l2.618-1.46c42.259-23.572 77.057-58.37 100.629-100.631l1.464-2.623c4.038-7.234 13.174-9.826 20.408-5.787 7.234 4.038 9.825 13.175 5.787 20.408l-1.462 2.619c-26.284 47.123-65.087 85.927-112.214 112.214l-2.621 1.462c-7.188 4.008-16.344 1.487-20.405-5.796z"/><path d="m255.94 26.94c-126.27 0-229 102.73-229 229s102.73 229 229 229 229-102.73 229-229-102.73-229-229-229zm-124.38 176.52c-3.22 7.61-12.01 11.2-19.66 7.96-7.63-3.23-11.2-12.03-7.96-19.66 16.71-39.45 48.28-71.07 87.82-87.82 7.63-3.24 16.43.33 19.66 7.96 3.23 7.62-.33 16.43-7.96 19.66-32.28 13.68-58.19 39.55-71.9 71.9zm71.35 105.51c-29.28-29.28-29.28-76.78 0-106.06s76.78-29.28 106.06 0c29.25 29.24 29.25 76.82 0 106.06-29.28 29.28-76.78 29.28-106.06 0zm205.03 11.15c-16.26 38.38-47.24 70.63-87.82 87.82-7.64 3.24-16.44-.34-19.66-7.96-3.23-7.62.33-16.43 7.96-19.66 31.4-13.31 57.83-38.7 71.9-71.9 3.23-7.63 12.04-11.2 19.67-7.96 7.62 3.23 11.19 12.03 7.95 19.66z"/><path d="m287.76 224.12c-17.56-17.56-46.08-17.56-63.64 0-17.55 17.56-17.56 46.08 0 63.64 17.56 17.55 46.08 17.56 63.64 0 17.55-17.55 17.55-46.09 0-63.64zm-21.21 42.43c-5.86 5.85-15.36 5.85-21.22 0-5.85-5.86-5.85-15.36 0-21.22 5.86-5.85 15.36-5.85 21.22 0 5.85 5.86 5.85 15.36 0 21.22z"/></g></svg>